<?xml version="1.0" ?><!DOCTYPE svg  PUBLIC '-//W3C//DTD SVG 1.1//EN'  'http://www.w3.org/Graphics/SVG/1.1/DTD/svg11.dtd'><svg enable-background="new 0 0 24 24" height="24px" id="Layer_1" version="1.1" viewBox="0 0 24 24" width="24px" xml:space="preserve" xmlns="http://www.w3.org/2000/svg" xmlns:xlink="http://www.w3.org/1999/xlink"><g><path d="M19.5,7.5c-0.4-0.4-0.9-0.7-1.4-0.7H5.9c-0.5,0-1.1,0.2-1.4,0.7C4.1,8,4,8.5,4,9.1l1.4,10.1c0.1,0.6,0.4,1.1,0.9,1.4   l4.7,2.7c0.3,0.2,0.6,0.3,1,0.3c0.3,0,0.7-0.1,1-0.3l4.7-2.7c0.5-0.3,0.9-0.8,0.9-1.4L20,9.1C20,8.5,19.9,8,19.5,7.5z M16,11.1H8.5   l0.4,2.6h6.7c0,0,0,0,0,0c0,0,0,0,0,0c0,0,0,0,0.1,0c0,0,0.1,0,0.1,0c0,0,0.1,0,0.1,0c0,0,0,0,0.1,0.1c0,0,0,0,0.1,0.1   c0,0,0,0.1,0,0.1c0,0,0,0.1,0,0.1c0,0,0,0,0,0.1c0,0,0,0,0,0s0,0,0,0l-0.4,3.1c0,0.1-0.1,0.3-0.2,0.3l-3.1,1.8   c-0.1,0-0.2,0.1-0.2,0.1s-0.2,0-0.2-0.1l-3.1-1.8c-0.1-0.1-0.2-0.2-0.2-0.3l-0.1-1c0-0.3,0.1-0.5,0.4-0.5c0.3,0,0.5,0.1,0.5,0.4   L9.3,17l2.7,1.5l2.7-1.5l0.3-2.4H8.5h0c-0.1,0-0.1,0-0.2,0c0,0,0,0-0.1,0c0,0-0.1,0-0.1-0.1c0,0,0,0,0-0.1c0,0,0-0.1-0.1-0.1   c0,0,0,0,0-0.1c0,0,0,0,0-0.1l-0.5-3.6c0-0.1,0-0.3,0.1-0.4c0.1-0.1,0.2-0.2,0.4-0.2H16c0.3,0,0.5,0.2,0.5,0.5   C16.5,10.8,16.3,11.1,16,11.1z"/><path d="M5,5.8c0.3,0,0.5-0.2,0.5-0.5V3.6h1.2v1.7c0,0.3,0.2,0.5,0.5,0.5s0.5-0.2,0.5-0.5V3.2V1c0-0.3-0.2-0.5-0.5-0.5   S6.8,0.7,6.8,1v1.7H5.5V1c0-0.3-0.2-0.5-0.5-0.5S4.6,0.7,4.6,1v2.2v2.2C4.6,5.6,4.8,5.8,5,5.8z"/><path d="M8.6,1.5h0.6v1.7v2.2c0,0.3,0.2,0.5,0.5,0.5c0.3,0,0.5-0.2,0.5-0.5V3.2V1.5h0.6c0.3,0,0.5-0.2,0.5-0.5   c0-0.3-0.2-0.5-0.5-0.5H8.6C8.3,0.5,8.1,0.7,8.1,1C8.1,1.2,8.3,1.5,8.6,1.5z"/><path d="M12.1,5.8c0.3,0,0.5-0.2,0.5-0.5V3.2V1.5H14v1.7v2.2c0,0.3,0.2,0.5,0.5,0.5c0.3,0,0.5-0.2,0.5-0.5V3.2V1.5h1.4v1.7v2.2   c0,0.3,0.2,0.5,0.5,0.5H19c0.3,0,0.5-0.2,0.5-0.5c0-0.3-0.2-0.5-0.5-0.5h-1.7V3.2V1c0-0.3-0.2-0.5-0.5-0.5h-4.6   c-0.3,0-0.5,0.2-0.5,0.5v2.2v2.2C11.6,5.6,11.9,5.8,12.1,5.8z"/></g></svg>